<mxfile host="Electron" agent="Mozilla/5.0 (Windows NT 10.0; Win64; x64) AppleWebKit/537.36 (KHTML, like Gecko) draw.io/24.7.5 Chrome/126.0.6478.183 Electron/31.3.0 Safari/537.36" version="24.7.5">
  <diagram name="Page-1" id="03018318-947c-dd8e-b7a3-06fadd420f32">
    <mxGraphModel dx="2074" dy="884" grid="1" gridSize="10" guides="1" tooltips="1" connect="1" arrows="1" fold="1" page="1" pageScale="1" pageWidth="1100" pageHeight="850" background="none" math="0" shadow="0">
      <root>
        <mxCell id="0" />
        <mxCell id="1" parent="0" />
        <mxCell id="pPyZC2v6q-2139JyV6bG-2" value="" style="strokeWidth=1;shadow=0;dashed=0;align=center;html=1;shape=mxgraph.mockup.containers.browserWindow;rSize=0;strokeColor=#666666;strokeColor2=#008cff;strokeColor3=#c4c4c4;mainText=,;recursiveResize=0;movable=0;resizable=0;rotatable=0;deletable=0;editable=0;locked=1;connectable=0;" parent="1" vertex="1">
          <mxGeometry width="1090" height="840" as="geometry" />
        </mxCell>
        <mxCell id="pPyZC2v6q-2139JyV6bG-3" value="Page 1" style="strokeWidth=1;shadow=0;dashed=0;align=center;html=1;shape=mxgraph.mockup.containers.anchor;fontSize=17;fontColor=#666666;align=left;whiteSpace=wrap;" parent="pPyZC2v6q-2139JyV6bG-2" vertex="1">
          <mxGeometry x="60" y="12" width="110" height="26" as="geometry" />
        </mxCell>
        <mxCell id="pPyZC2v6q-2139JyV6bG-4" value="https://www.draw.io" style="strokeWidth=1;shadow=0;dashed=0;align=center;html=1;shape=mxgraph.mockup.containers.anchor;rSize=0;fontSize=17;fontColor=#666666;align=left;" parent="pPyZC2v6q-2139JyV6bG-2" vertex="1">
          <mxGeometry x="130" y="60" width="250" height="26" as="geometry" />
        </mxCell>
        <mxCell id="pPyZC2v6q-2139JyV6bG-116" value="" style="group" parent="1" vertex="1" connectable="0">
          <mxGeometry x="60" y="360" width="542.5" height="30" as="geometry" />
        </mxCell>
        <mxCell id="pPyZC2v6q-2139JyV6bG-106" value="2016" style="strokeWidth=1;shadow=0;dashed=0;align=center;html=1;shape=mxgraph.mockup.text.textBox;fontColor=#666666;align=left;fontSize=17;spacingLeft=4;spacingTop=-3;whiteSpace=wrap;strokeColor=#666666;mainText=" parent="pPyZC2v6q-2139JyV6bG-116" vertex="1">
          <mxGeometry x="80" width="150" height="30" as="geometry" />
        </mxCell>
        <mxCell id="pPyZC2v6q-2139JyV6bG-107" value="&lt;font style=&quot;font-size: 20px;&quot;&gt;Year&lt;/font&gt;" style="text;html=1;align=center;verticalAlign=middle;whiteSpace=wrap;rounded=0;" parent="pPyZC2v6q-2139JyV6bG-116" vertex="1">
          <mxGeometry width="60" height="30" as="geometry" />
        </mxCell>
        <mxCell id="pPyZC2v6q-2139JyV6bG-113" value="2020" style="strokeWidth=1;shadow=0;dashed=0;align=center;html=1;shape=mxgraph.mockup.text.textBox;fontColor=#666666;align=left;fontSize=17;spacingLeft=4;spacingTop=-3;whiteSpace=wrap;strokeColor=#666666;mainText=" parent="pPyZC2v6q-2139JyV6bG-116" vertex="1">
          <mxGeometry x="392.5" width="150" height="30" as="geometry" />
        </mxCell>
        <mxCell id="pPyZC2v6q-2139JyV6bG-114" value="&lt;font style=&quot;font-size: 20px;&quot;&gt;Year&lt;/font&gt;" style="text;html=1;align=center;verticalAlign=middle;whiteSpace=wrap;rounded=0;" parent="pPyZC2v6q-2139JyV6bG-116" vertex="1">
          <mxGeometry x="312.5" width="60" height="30" as="geometry" />
        </mxCell>
        <mxCell id="pPyZC2v6q-2139JyV6bG-115" value="&lt;font style=&quot;font-size: 20px;&quot;&gt;to&lt;/font&gt;" style="text;html=1;align=center;verticalAlign=middle;whiteSpace=wrap;rounded=0;" parent="pPyZC2v6q-2139JyV6bG-116" vertex="1">
          <mxGeometry x="250" width="60" height="30" as="geometry" />
        </mxCell>
        <mxCell id="pPyZC2v6q-2139JyV6bG-124" value="" style="group" parent="1" vertex="1" connectable="0">
          <mxGeometry x="60" y="180" width="230" height="30" as="geometry" />
        </mxCell>
        <mxCell id="pPyZC2v6q-2139JyV6bG-10" value="Title Example" style="strokeWidth=1;shadow=0;dashed=0;align=center;html=1;shape=mxgraph.mockup.text.textBox;fontColor=#666666;align=left;fontSize=17;spacingLeft=4;spacingTop=-3;whiteSpace=wrap;strokeColor=#666666;mainText=" parent="pPyZC2v6q-2139JyV6bG-124" vertex="1">
          <mxGeometry x="80" width="150" height="30" as="geometry" />
        </mxCell>
        <mxCell id="pPyZC2v6q-2139JyV6bG-12" value="&lt;font style=&quot;font-size: 20px;&quot;&gt;Title&lt;/font&gt;" style="text;html=1;align=center;verticalAlign=middle;whiteSpace=wrap;rounded=0;" parent="pPyZC2v6q-2139JyV6bG-124" vertex="1">
          <mxGeometry width="60" height="30" as="geometry" />
        </mxCell>
        <mxCell id="pPyZC2v6q-2139JyV6bG-125" value="" style="group" parent="1" vertex="1" connectable="0">
          <mxGeometry x="60" y="240" width="230" height="30" as="geometry" />
        </mxCell>
        <mxCell id="pPyZC2v6q-2139JyV6bG-13" value="Title Example" style="strokeWidth=1;shadow=0;dashed=0;align=center;html=1;shape=mxgraph.mockup.text.textBox;fontColor=#666666;align=left;fontSize=17;spacingLeft=4;spacingTop=-3;whiteSpace=wrap;strokeColor=#666666;mainText=" parent="pPyZC2v6q-2139JyV6bG-125" vertex="1">
          <mxGeometry x="80" width="150" height="30" as="geometry" />
        </mxCell>
        <mxCell id="pPyZC2v6q-2139JyV6bG-14" value="&lt;span style=&quot;font-size: 20px;&quot;&gt;Publisher&lt;/span&gt;" style="text;html=1;align=center;verticalAlign=middle;whiteSpace=wrap;rounded=0;" parent="pPyZC2v6q-2139JyV6bG-125" vertex="1">
          <mxGeometry width="60" height="30" as="geometry" />
        </mxCell>
        <mxCell id="pPyZC2v6q-2139JyV6bG-126" value="" style="group" parent="1" vertex="1" connectable="0">
          <mxGeometry x="60" y="300" width="230" height="30" as="geometry" />
        </mxCell>
        <mxCell id="pPyZC2v6q-2139JyV6bG-48" value="&lt;span style=&quot;font-size: 20px;&quot;&gt;Type&lt;/span&gt;" style="text;html=1;align=center;verticalAlign=middle;whiteSpace=wrap;rounded=0;" parent="pPyZC2v6q-2139JyV6bG-126" vertex="1">
          <mxGeometry width="60" height="30" as="geometry" />
        </mxCell>
        <mxCell id="pPyZC2v6q-2139JyV6bG-49" value="Option 1" style="strokeWidth=1;shadow=0;dashed=0;align=center;html=1;shape=mxgraph.mockup.forms.comboBox;strokeColor=#999999;fillColor=#ddeeff;align=left;fillColor2=#aaddff;mainText=;fontColor=#666666;fontSize=17;spacingLeft=3;" parent="pPyZC2v6q-2139JyV6bG-126" vertex="1">
          <mxGeometry x="80" width="150" height="30" as="geometry" />
        </mxCell>
        <mxCell id="pPyZC2v6q-2139JyV6bG-138" value="" style="group" parent="1" vertex="1" connectable="0">
          <mxGeometry x="70" y="420" width="480" height="30" as="geometry" />
        </mxCell>
        <mxCell id="pPyZC2v6q-2139JyV6bG-133" value="" style="group" parent="pPyZC2v6q-2139JyV6bG-138" vertex="1" connectable="0">
          <mxGeometry width="245" height="30" as="geometry" />
        </mxCell>
        <mxCell id="pPyZC2v6q-2139JyV6bG-127" value="" style="group" parent="pPyZC2v6q-2139JyV6bG-133" vertex="1" connectable="0">
          <mxGeometry width="230" height="30" as="geometry" />
        </mxCell>
        <mxCell id="pPyZC2v6q-2139JyV6bG-129" value="&lt;span style=&quot;font-size: 20px;&quot;&gt;Status&lt;/span&gt;" style="text;html=1;align=center;verticalAlign=middle;whiteSpace=wrap;rounded=0;" parent="pPyZC2v6q-2139JyV6bG-127" vertex="1">
          <mxGeometry width="60" height="30" as="geometry" />
        </mxCell>
        <mxCell id="pPyZC2v6q-2139JyV6bG-117" value="Ongoing" style="strokeWidth=1;shadow=0;dashed=0;align=center;html=1;shape=mxgraph.mockup.forms.rrect;rSize=0;fillColor=#eeeeee;strokeColor=#999999;gradientColor=#cccccc;align=left;spacingLeft=4;fontSize=17;fontColor=#666666;labelPosition=right;" parent="pPyZC2v6q-2139JyV6bG-127" vertex="1">
          <mxGeometry x="90" y="7.5" width="15" height="15" as="geometry" />
        </mxCell>
        <mxCell id="pPyZC2v6q-2139JyV6bG-132" value="Completed" style="strokeWidth=1;shadow=0;dashed=0;align=center;html=1;shape=mxgraph.mockup.forms.rrect;rSize=0;fillColor=#eeeeee;strokeColor=#999999;gradientColor=#cccccc;align=left;spacingLeft=4;fontSize=17;fontColor=#666666;labelPosition=right;" parent="pPyZC2v6q-2139JyV6bG-133" vertex="1">
          <mxGeometry x="230" y="7.5" width="15" height="15" as="geometry" />
        </mxCell>
        <mxCell id="pPyZC2v6q-2139JyV6bG-134" value="Hiatus" style="strokeWidth=1;shadow=0;dashed=0;align=center;html=1;shape=mxgraph.mockup.forms.rrect;rSize=0;fillColor=#eeeeee;strokeColor=#999999;gradientColor=#cccccc;align=left;spacingLeft=4;fontSize=17;fontColor=#666666;labelPosition=right;" parent="pPyZC2v6q-2139JyV6bG-138" vertex="1">
          <mxGeometry x="360" y="7.5" width="15" height="15" as="geometry" />
        </mxCell>
        <mxCell id="pPyZC2v6q-2139JyV6bG-137" value="Dicontinued" style="strokeWidth=1;shadow=0;dashed=0;align=center;html=1;shape=mxgraph.mockup.forms.rrect;rSize=0;fillColor=#eeeeee;strokeColor=#999999;gradientColor=#cccccc;align=left;spacingLeft=4;fontSize=17;fontColor=#666666;labelPosition=right;" parent="pPyZC2v6q-2139JyV6bG-138" vertex="1">
          <mxGeometry x="465" y="7.5" width="15" height="15" as="geometry" />
        </mxCell>
        <mxCell id="pPyZC2v6q-2139JyV6bG-139" value="" style="group" parent="1" vertex="1" connectable="0">
          <mxGeometry x="60" y="480" width="542.5" height="30" as="geometry" />
        </mxCell>
        <mxCell id="pPyZC2v6q-2139JyV6bG-140" value="1" style="strokeWidth=1;shadow=0;dashed=0;align=center;html=1;shape=mxgraph.mockup.text.textBox;fontColor=#666666;align=left;fontSize=17;spacingLeft=4;spacingTop=-3;whiteSpace=wrap;strokeColor=#666666;mainText=" parent="pPyZC2v6q-2139JyV6bG-139" vertex="1">
          <mxGeometry x="80" width="150" height="30" as="geometry" />
        </mxCell>
        <mxCell id="pPyZC2v6q-2139JyV6bG-141" value="&lt;font style=&quot;font-size: 20px;&quot;&gt;Volumes&lt;/font&gt;" style="text;html=1;align=center;verticalAlign=middle;whiteSpace=wrap;rounded=0;" parent="pPyZC2v6q-2139JyV6bG-139" vertex="1">
          <mxGeometry width="60" height="30" as="geometry" />
        </mxCell>
        <mxCell id="pPyZC2v6q-2139JyV6bG-142" value="10" style="strokeWidth=1;shadow=0;dashed=0;align=center;html=1;shape=mxgraph.mockup.text.textBox;fontColor=#666666;align=left;fontSize=17;spacingLeft=4;spacingTop=-3;whiteSpace=wrap;strokeColor=#666666;mainText=" parent="pPyZC2v6q-2139JyV6bG-139" vertex="1">
          <mxGeometry x="392.5" width="150" height="30" as="geometry" />
        </mxCell>
        <mxCell id="pPyZC2v6q-2139JyV6bG-143" value="&lt;font style=&quot;font-size: 20px;&quot;&gt;Volumes&lt;/font&gt;" style="text;html=1;align=center;verticalAlign=middle;whiteSpace=wrap;rounded=0;" parent="pPyZC2v6q-2139JyV6bG-139" vertex="1">
          <mxGeometry x="312.5" width="60" height="30" as="geometry" />
        </mxCell>
        <mxCell id="pPyZC2v6q-2139JyV6bG-144" value="&lt;font style=&quot;font-size: 20px;&quot;&gt;to&lt;/font&gt;" style="text;html=1;align=center;verticalAlign=middle;whiteSpace=wrap;rounded=0;" parent="pPyZC2v6q-2139JyV6bG-139" vertex="1">
          <mxGeometry x="250" width="60" height="30" as="geometry" />
        </mxCell>
        <mxCell id="pPyZC2v6q-2139JyV6bG-145" value="" style="group" parent="1" vertex="1" connectable="0">
          <mxGeometry x="60" y="560" width="625" height="140" as="geometry" />
        </mxCell>
        <mxCell id="pPyZC2v6q-2139JyV6bG-15" value="Genre1" style="strokeWidth=1;shadow=0;dashed=0;align=center;html=1;shape=mxgraph.mockup.forms.rrect;rSize=0;fillColor=#eeeeee;strokeColor=#999999;gradientColor=#cccccc;align=left;spacingLeft=4;fontSize=17;fontColor=#666666;labelPosition=right;" parent="pPyZC2v6q-2139JyV6bG-145" vertex="1">
          <mxGeometry x="120" y="7.5" width="15" height="15" as="geometry" />
        </mxCell>
        <mxCell id="pPyZC2v6q-2139JyV6bG-16" value="&lt;span style=&quot;font-size: 20px;&quot;&gt;Genres&lt;/span&gt;" style="text;html=1;align=center;verticalAlign=middle;whiteSpace=wrap;rounded=0;" parent="pPyZC2v6q-2139JyV6bG-145" vertex="1">
          <mxGeometry width="60" height="30" as="geometry" />
        </mxCell>
        <mxCell id="pPyZC2v6q-2139JyV6bG-17" value="Genre2" style="strokeWidth=1;shadow=0;dashed=0;align=center;html=1;shape=mxgraph.mockup.forms.rrect;rSize=0;fillColor=#eeeeee;strokeColor=#999999;gradientColor=#cccccc;align=left;spacingLeft=4;fontSize=17;fontColor=#666666;labelPosition=right;" parent="pPyZC2v6q-2139JyV6bG-145" vertex="1">
          <mxGeometry x="215" y="7.5" width="15" height="15" as="geometry" />
        </mxCell>
        <mxCell id="pPyZC2v6q-2139JyV6bG-18" value="Genre3" style="strokeWidth=1;shadow=0;dashed=0;align=center;html=1;shape=mxgraph.mockup.forms.rrect;rSize=0;fillColor=#eeeeee;strokeColor=#999999;gradientColor=#cccccc;align=left;spacingLeft=4;fontSize=17;fontColor=#666666;labelPosition=right;" parent="pPyZC2v6q-2139JyV6bG-145" vertex="1">
          <mxGeometry x="310" y="7.5" width="15" height="15" as="geometry" />
        </mxCell>
        <mxCell id="pPyZC2v6q-2139JyV6bG-20" value="Genre3" style="strokeWidth=1;shadow=0;dashed=0;align=center;html=1;shape=mxgraph.mockup.forms.rrect;rSize=0;fillColor=#eeeeee;strokeColor=#999999;gradientColor=#cccccc;align=left;spacingLeft=4;fontSize=17;fontColor=#666666;labelPosition=right;" parent="pPyZC2v6q-2139JyV6bG-145" vertex="1">
          <mxGeometry x="420" y="7.5" width="15" height="15" as="geometry" />
        </mxCell>
        <mxCell id="pPyZC2v6q-2139JyV6bG-21" value="Genre4" style="strokeWidth=1;shadow=0;dashed=0;align=center;html=1;shape=mxgraph.mockup.forms.rrect;rSize=0;fillColor=#eeeeee;strokeColor=#999999;gradientColor=#cccccc;align=left;spacingLeft=4;fontSize=17;fontColor=#666666;labelPosition=right;" parent="pPyZC2v6q-2139JyV6bG-145" vertex="1">
          <mxGeometry x="515" y="7.5" width="15" height="15" as="geometry" />
        </mxCell>
        <mxCell id="pPyZC2v6q-2139JyV6bG-22" value="Genre5" style="strokeWidth=1;shadow=0;dashed=0;align=center;html=1;shape=mxgraph.mockup.forms.rrect;rSize=0;fillColor=#eeeeee;strokeColor=#999999;gradientColor=#cccccc;align=left;spacingLeft=4;fontSize=17;fontColor=#666666;labelPosition=right;" parent="pPyZC2v6q-2139JyV6bG-145" vertex="1">
          <mxGeometry x="610" y="7.5" width="15" height="15" as="geometry" />
        </mxCell>
        <mxCell id="pPyZC2v6q-2139JyV6bG-27" value="Genre6" style="strokeWidth=1;shadow=0;dashed=0;align=center;html=1;shape=mxgraph.mockup.forms.rrect;rSize=0;fillColor=#eeeeee;strokeColor=#999999;gradientColor=#cccccc;align=left;spacingLeft=4;fontSize=17;fontColor=#666666;labelPosition=right;" parent="pPyZC2v6q-2139JyV6bG-145" vertex="1">
          <mxGeometry x="120" y="45" width="15" height="15" as="geometry" />
        </mxCell>
        <mxCell id="pPyZC2v6q-2139JyV6bG-28" value="Genre7" style="strokeWidth=1;shadow=0;dashed=0;align=center;html=1;shape=mxgraph.mockup.forms.rrect;rSize=0;fillColor=#eeeeee;strokeColor=#999999;gradientColor=#cccccc;align=left;spacingLeft=4;fontSize=17;fontColor=#666666;labelPosition=right;" parent="pPyZC2v6q-2139JyV6bG-145" vertex="1">
          <mxGeometry x="215" y="45" width="15" height="15" as="geometry" />
        </mxCell>
        <mxCell id="pPyZC2v6q-2139JyV6bG-29" value="Genre8" style="strokeWidth=1;shadow=0;dashed=0;align=center;html=1;shape=mxgraph.mockup.forms.rrect;rSize=0;fillColor=#eeeeee;strokeColor=#999999;gradientColor=#cccccc;align=left;spacingLeft=4;fontSize=17;fontColor=#666666;labelPosition=right;" parent="pPyZC2v6q-2139JyV6bG-145" vertex="1">
          <mxGeometry x="310" y="45" width="15" height="15" as="geometry" />
        </mxCell>
        <mxCell id="pPyZC2v6q-2139JyV6bG-30" value="Genre9" style="strokeWidth=1;shadow=0;dashed=0;align=center;html=1;shape=mxgraph.mockup.forms.rrect;rSize=0;fillColor=#eeeeee;strokeColor=#999999;gradientColor=#cccccc;align=left;spacingLeft=4;fontSize=17;fontColor=#666666;labelPosition=right;" parent="pPyZC2v6q-2139JyV6bG-145" vertex="1">
          <mxGeometry x="420" y="45" width="15" height="15" as="geometry" />
        </mxCell>
        <mxCell id="pPyZC2v6q-2139JyV6bG-31" value="Genre10" style="strokeWidth=1;shadow=0;dashed=0;align=center;html=1;shape=mxgraph.mockup.forms.rrect;rSize=0;fillColor=#eeeeee;strokeColor=#999999;gradientColor=#cccccc;align=left;spacingLeft=4;fontSize=17;fontColor=#666666;labelPosition=right;" parent="pPyZC2v6q-2139JyV6bG-145" vertex="1">
          <mxGeometry x="515" y="45" width="15" height="15" as="geometry" />
        </mxCell>
        <mxCell id="pPyZC2v6q-2139JyV6bG-32" value="Genre11" style="strokeWidth=1;shadow=0;dashed=0;align=center;html=1;shape=mxgraph.mockup.forms.rrect;rSize=0;fillColor=#eeeeee;strokeColor=#999999;gradientColor=#cccccc;align=left;spacingLeft=4;fontSize=17;fontColor=#666666;labelPosition=right;" parent="pPyZC2v6q-2139JyV6bG-145" vertex="1">
          <mxGeometry x="610" y="45" width="15" height="15" as="geometry" />
        </mxCell>
        <mxCell id="pPyZC2v6q-2139JyV6bG-33" value="Genre1" style="strokeWidth=1;shadow=0;dashed=0;align=center;html=1;shape=mxgraph.mockup.forms.rrect;rSize=0;fillColor=#eeeeee;strokeColor=#999999;gradientColor=#cccccc;align=left;spacingLeft=4;fontSize=17;fontColor=#666666;labelPosition=right;" parent="pPyZC2v6q-2139JyV6bG-145" vertex="1">
          <mxGeometry x="120" y="85" width="15" height="15" as="geometry" />
        </mxCell>
        <mxCell id="pPyZC2v6q-2139JyV6bG-34" value="Genre1" style="strokeWidth=1;shadow=0;dashed=0;align=center;html=1;shape=mxgraph.mockup.forms.rrect;rSize=0;fillColor=#eeeeee;strokeColor=#999999;gradientColor=#cccccc;align=left;spacingLeft=4;fontSize=17;fontColor=#666666;labelPosition=right;" parent="pPyZC2v6q-2139JyV6bG-145" vertex="1">
          <mxGeometry x="215" y="85" width="15" height="15" as="geometry" />
        </mxCell>
        <mxCell id="pPyZC2v6q-2139JyV6bG-35" value="Genre1" style="strokeWidth=1;shadow=0;dashed=0;align=center;html=1;shape=mxgraph.mockup.forms.rrect;rSize=0;fillColor=#eeeeee;strokeColor=#999999;gradientColor=#cccccc;align=left;spacingLeft=4;fontSize=17;fontColor=#666666;labelPosition=right;" parent="pPyZC2v6q-2139JyV6bG-145" vertex="1">
          <mxGeometry x="310" y="85" width="15" height="15" as="geometry" />
        </mxCell>
        <mxCell id="pPyZC2v6q-2139JyV6bG-36" value="Genre1" style="strokeWidth=1;shadow=0;dashed=0;align=center;html=1;shape=mxgraph.mockup.forms.rrect;rSize=0;fillColor=#eeeeee;strokeColor=#999999;gradientColor=#cccccc;align=left;spacingLeft=4;fontSize=17;fontColor=#666666;labelPosition=right;" parent="pPyZC2v6q-2139JyV6bG-145" vertex="1">
          <mxGeometry x="420" y="85" width="15" height="15" as="geometry" />
        </mxCell>
        <mxCell id="pPyZC2v6q-2139JyV6bG-37" value="Genre1" style="strokeWidth=1;shadow=0;dashed=0;align=center;html=1;shape=mxgraph.mockup.forms.rrect;rSize=0;fillColor=#eeeeee;strokeColor=#999999;gradientColor=#cccccc;align=left;spacingLeft=4;fontSize=17;fontColor=#666666;labelPosition=right;" parent="pPyZC2v6q-2139JyV6bG-145" vertex="1">
          <mxGeometry x="515" y="85" width="15" height="15" as="geometry" />
        </mxCell>
        <mxCell id="pPyZC2v6q-2139JyV6bG-38" value="Genre1" style="strokeWidth=1;shadow=0;dashed=0;align=center;html=1;shape=mxgraph.mockup.forms.rrect;rSize=0;fillColor=#eeeeee;strokeColor=#999999;gradientColor=#cccccc;align=left;spacingLeft=4;fontSize=17;fontColor=#666666;labelPosition=right;" parent="pPyZC2v6q-2139JyV6bG-145" vertex="1">
          <mxGeometry x="610" y="85" width="15" height="15" as="geometry" />
        </mxCell>
        <mxCell id="pPyZC2v6q-2139JyV6bG-39" value="Genre1" style="strokeWidth=1;shadow=0;dashed=0;align=center;html=1;shape=mxgraph.mockup.forms.rrect;rSize=0;fillColor=#eeeeee;strokeColor=#999999;gradientColor=#cccccc;align=left;spacingLeft=4;fontSize=17;fontColor=#666666;labelPosition=right;" parent="pPyZC2v6q-2139JyV6bG-145" vertex="1">
          <mxGeometry x="120" y="125" width="15" height="15" as="geometry" />
        </mxCell>
        <mxCell id="pPyZC2v6q-2139JyV6bG-40" value="Genre1" style="strokeWidth=1;shadow=0;dashed=0;align=center;html=1;shape=mxgraph.mockup.forms.rrect;rSize=0;fillColor=#eeeeee;strokeColor=#999999;gradientColor=#cccccc;align=left;spacingLeft=4;fontSize=17;fontColor=#666666;labelPosition=right;" parent="pPyZC2v6q-2139JyV6bG-145" vertex="1">
          <mxGeometry x="215" y="125" width="15" height="15" as="geometry" />
        </mxCell>
        <mxCell id="pPyZC2v6q-2139JyV6bG-41" value="Genre1" style="strokeWidth=1;shadow=0;dashed=0;align=center;html=1;shape=mxgraph.mockup.forms.rrect;rSize=0;fillColor=#eeeeee;strokeColor=#999999;gradientColor=#cccccc;align=left;spacingLeft=4;fontSize=17;fontColor=#666666;labelPosition=right;" parent="pPyZC2v6q-2139JyV6bG-145" vertex="1">
          <mxGeometry x="310" y="125" width="15" height="15" as="geometry" />
        </mxCell>
        <mxCell id="pPyZC2v6q-2139JyV6bG-42" value="Genre1" style="strokeWidth=1;shadow=0;dashed=0;align=center;html=1;shape=mxgraph.mockup.forms.rrect;rSize=0;fillColor=#eeeeee;strokeColor=#999999;gradientColor=#cccccc;align=left;spacingLeft=4;fontSize=17;fontColor=#666666;labelPosition=right;" parent="pPyZC2v6q-2139JyV6bG-145" vertex="1">
          <mxGeometry x="420" y="125" width="15" height="15" as="geometry" />
        </mxCell>
        <mxCell id="pPyZC2v6q-2139JyV6bG-43" value="Genre1" style="strokeWidth=1;shadow=0;dashed=0;align=center;html=1;shape=mxgraph.mockup.forms.rrect;rSize=0;fillColor=#eeeeee;strokeColor=#999999;gradientColor=#cccccc;align=left;spacingLeft=4;fontSize=17;fontColor=#666666;labelPosition=right;" parent="pPyZC2v6q-2139JyV6bG-145" vertex="1">
          <mxGeometry x="515" y="125" width="15" height="15" as="geometry" />
        </mxCell>
        <mxCell id="pPyZC2v6q-2139JyV6bG-44" value="Genre1" style="strokeWidth=1;shadow=0;dashed=0;align=center;html=1;shape=mxgraph.mockup.forms.rrect;rSize=0;fillColor=#eeeeee;strokeColor=#999999;gradientColor=#cccccc;align=left;spacingLeft=4;fontSize=17;fontColor=#666666;labelPosition=right;" parent="pPyZC2v6q-2139JyV6bG-145" vertex="1">
          <mxGeometry x="610" y="125" width="15" height="15" as="geometry" />
        </mxCell>
        <mxCell id="3Z3gmtQK9LB2gVvu8uDw-1" value="Advanced Search" style="strokeWidth=1;shadow=0;dashed=0;align=center;html=1;shape=mxgraph.mockup.buttons.button;strokeColor=#666666;fontColor=#ffffff;mainText=;buttonStyle=round;fontSize=17;fontStyle=1;fillColor=#008cff;whiteSpace=wrap;" vertex="1" parent="1">
          <mxGeometry x="470" y="760" width="150" height="50" as="geometry" />
        </mxCell>
      </root>
    </mxGraphModel>
  </diagram>
</mxfile>
